<svg width="138" height="33" viewBox="0 0 138 33" fill="none" xmlns="http://www.w3.org/2000/svg">
<path d="M0 29.6554V30.95C0 32.0546 0.89543 32.95 2 32.95H3.29911C5.11618 32.95 6.59823 31.4722 6.59823 29.6554V28.3607C6.59823 27.2561 5.7028 26.3607 4.59823 26.3607H3.29911C1.47983 26.3607 0 27.8385 0 29.6554Z" fill="#F24822"/>
<path d="M16.4978 0H2C0.895432 0 0 0.895431 0 2V17.5046C0 18.8855 1.38753 19.8578 2.76654 19.7843C2.94292 19.7749 3.12049 19.7701 3.29911 19.7701H4.59822C5.70279 19.7701 6.59822 18.8747 6.59822 17.7701V16.4755C6.59822 13.7503 7.70754 11.2798 9.5002 9.48958C9.6666 9.32119 9.84187 9.15945 10.0216 9.00436C10.0837 8.95118 10.1414 8.90022 10.2035 8.85148C10.3877 8.70082 10.5762 8.55458 10.7715 8.41721C10.8358 8.37069 10.9024 8.32637 10.9667 8.28206C11.0976 8.19343 11.233 8.10702 11.3683 8.02505C11.5058 7.94307 11.6412 7.86109 11.7832 7.78576C11.923 7.71042 12.0672 7.63731 12.2114 7.56862C13.5093 6.9416 14.9647 6.59153 16.5 6.59153C18.0353 6.59153 19.4885 6.9416 20.7886 7.56862C20.9328 7.63731 21.0748 7.71042 21.2146 7.78576C21.3544 7.86109 21.4941 7.94307 21.6295 8.02505C21.7648 8.10702 21.8979 8.19343 22.0311 8.28206C22.0976 8.32637 22.162 8.37069 22.2263 8.41721C22.4215 8.55458 22.6101 8.70082 22.7921 8.85148C22.8542 8.90022 22.9141 8.95118 22.974 9.00436C23.1537 9.15945 23.329 9.32341 23.4954 9.48958C25.288 11.2798 26.3996 13.7503 26.3996 16.4755C26.3996 21.926 21.9578 26.3595 16.5022 26.3595H15.2031C14.0985 26.3595 13.2031 27.2549 13.2031 28.3595V29.6541C13.2031 29.8305 13.1984 30.0058 13.1892 30.1799C13.1163 31.5597 14.0888 32.9488 15.4705 32.9488H16.5022C25.5986 32.9488 33 25.5574 33 16.4733C33 7.38916 25.5942 0 16.4978 0Z" fill="#F24822"/>
<path d="M19.7979 16.4809C19.7979 18.2978 18.3159 19.7756 16.4988 19.7756H15.1997C14.0951 19.7756 13.1997 18.8802 13.1997 17.7756V16.4809C13.1997 14.6641 14.6795 13.1863 16.4988 13.1863C18.3181 13.1863 19.7979 14.6641 19.7979 16.4809Z" fill="#F24822"/>
<path d="M43.0173 27.4177V9.26917H47.6062V27.4153H43.0173V27.4177ZM46.6559 20.9421V17.5125H50.2452C50.6884 17.5125 51.0946 17.424 51.4614 17.2445C51.8282 17.065 52.1236 16.7921 52.3452 16.4258C52.5667 16.0595 52.6775 15.6194 52.6775 15.1081C52.6775 14.5967 52.5667 14.1345 52.3452 13.778C52.1236 13.4191 51.8282 13.1462 51.4614 12.9594C51.0946 12.7725 50.6884 12.6766 50.2452 12.6766H46.6559V9.27162H51.0133C52.1925 9.27162 53.2462 9.50272 54.1792 9.96246C55.1098 10.4222 55.8483 11.0884 56.3973 11.9588C56.9438 12.8291 57.2171 13.8788 57.2171 15.1056C57.2171 16.3324 56.9438 17.3576 56.3973 18.2279C55.8508 19.0982 55.1122 19.7669 54.1792 20.2365C53.2486 20.7061 52.1925 20.9396 51.0133 20.9396H46.6559V20.9421Z" fill="#262626"/>
<path d="M56.7769 27.4153L63.8497 9.26917H68.2834L75.2799 27.4153H70.4621L65.2086 12.1603H66.8481L61.5183 27.4153H56.7769ZM61.0826 24.2414V20.6077H71.1292V24.2414H61.0826Z" fill="#262626"/>
<path d="M80.28 20.915L73.3352 9.26917H78.6158L83.921 18.7393H80.2308L85.5113 9.26917H90.6885L83.6921 20.915H80.2824H80.28ZM79.7679 27.4177V19.049H84.3567V27.4177H79.7679Z" fill="#262626"/>
<path d="M91.9185 27.4177V9.26917H96.5073V27.4153H91.9185V27.4177ZM94.9933 27.4177V23.4768H99.3753C100.382 23.4768 101.271 23.2801 102.041 22.8892C102.81 22.4958 103.4 21.9132 103.809 21.1363C104.218 20.3594 104.424 19.4178 104.424 18.309C104.424 17.2002 104.215 16.2955 103.797 15.5457C103.378 14.7958 102.787 14.2181 102.029 13.8174C101.268 13.4166 100.385 13.215 99.3753 13.215H94.8136V9.27408H99.4024C100.803 9.27408 102.098 9.49043 103.285 9.92558C104.471 10.3607 105.5 10.9803 106.374 11.7817C107.246 12.5832 107.92 13.5396 108.398 14.6483C108.875 15.7571 109.117 16.9864 109.117 18.3336C109.117 19.6809 108.878 20.915 108.398 22.0312C107.92 23.1498 107.243 24.1086 106.374 24.9101C105.503 25.7115 104.479 26.3311 103.299 26.7662C102.12 27.2014 100.84 27.4177 99.4541 27.4177H94.9933Z" fill="#262626"/>
<path d="M120.264 27.7486C118.863 27.7486 117.573 27.5101 116.394 27.0332C115.215 26.5563 114.186 25.89 113.304 25.0369C112.423 24.1838 111.736 23.1807 111.241 22.0302C110.746 20.8771 110.498 19.6381 110.498 18.3056C110.498 16.9731 110.742 15.7414 111.229 14.608C111.716 13.4722 112.396 12.474 113.267 11.6136C114.139 10.7531 115.163 10.0918 116.342 9.62956C117.521 9.16982 118.811 8.93872 120.212 8.93872C121.613 8.93872 122.903 9.16982 124.082 9.62956C125.261 10.0893 126.285 10.7506 127.157 11.6136C128.028 12.4765 128.708 13.4771 129.195 14.6203C129.683 15.7635 129.926 17.0001 129.926 18.3326C129.926 19.6651 129.683 20.9017 129.195 22.0449C128.708 23.1881 128.028 24.1912 127.157 25.0517C126.285 25.9146 125.264 26.5784 124.094 27.048C122.923 27.5175 121.647 27.7511 120.264 27.7511V27.7486ZM120.212 23.6528C121.219 23.6528 122.105 23.4315 122.866 22.9865C123.627 22.544 124.208 21.9195 124.609 21.1181C125.01 20.3166 125.212 19.3775 125.212 18.3031C125.212 17.5188 125.096 16.801 124.865 16.1544C124.634 15.5053 124.296 14.9473 123.853 14.4777C123.41 14.0081 122.878 13.6492 122.265 13.4033C121.65 13.1575 120.965 13.0321 120.215 13.0321C119.205 13.0321 118.326 13.2509 117.576 13.6836C116.825 14.1188 116.239 14.7334 115.82 15.5275C115.402 16.3216 115.192 17.246 115.192 18.3056C115.192 19.1242 115.308 19.8642 115.54 20.5207C115.771 21.1771 116.108 21.7401 116.551 22.2096C116.995 22.6792 117.529 23.0382 118.154 23.284C118.777 23.5323 119.464 23.6552 120.217 23.6552L120.212 23.6528Z" fill="#262626"/>
<path d="M134.652 15.7143C133.995 15.7143 133.414 15.5619 132.911 15.2595C132.409 14.9571 132.013 14.5465 131.722 14.0278C131.434 13.5115 131.289 12.9338 131.289 12.297C131.289 11.6603 131.432 11.0874 131.715 10.581C131.998 10.0745 132.392 9.67381 132.897 9.37879C133.399 9.08623 133.98 8.93872 134.637 8.93872C135.294 8.93872 135.875 9.09115 136.378 9.39354C136.88 9.69593 137.276 10.0991 137.567 10.6031C137.855 11.1046 138 11.6701 138 12.297C138 12.9239 137.857 13.5115 137.574 14.0278C137.291 14.5441 136.897 14.9546 136.395 15.2595C135.893 15.5643 135.312 15.7143 134.654 15.7143H134.652ZM134.635 14.9817C135.162 14.9817 135.622 14.8661 136.008 14.6301C136.397 14.3966 136.705 14.072 136.934 13.6615C137.163 13.2485 137.279 12.7887 137.279 12.2823C137.279 11.7758 137.163 11.3407 136.934 10.9473C136.705 10.5539 136.392 10.2417 136.001 10.0082C135.607 9.77461 135.152 9.6566 134.635 9.6566C134.118 9.6566 133.66 9.77461 133.268 10.0082C132.874 10.2417 132.569 10.5589 132.35 10.9547C132.131 11.353 132.02 11.7955 132.02 12.2823C132.02 12.769 132.129 13.2509 132.35 13.6615C132.569 14.0745 132.877 14.3966 133.276 14.6301C133.675 14.8637 134.128 14.9817 134.635 14.9817ZM133.515 13.8778V10.6252H134.322V13.8778H133.515ZM134.142 12.565V11.9823H134.77C134.91 11.9823 135.014 11.9504 135.083 11.8864C135.152 11.8225 135.186 11.7291 135.186 11.6111C135.186 11.5029 135.152 11.4144 135.083 11.3505C135.014 11.2866 134.908 11.2546 134.77 11.2546H134.142V10.6277H134.891C135.218 10.6277 135.486 10.7187 135.691 10.9031C135.895 11.0874 135.996 11.3185 135.996 11.5963C135.996 11.8742 135.893 12.1175 135.691 12.297C135.486 12.4765 135.206 12.565 134.846 12.565H134.145H134.142ZM135.262 13.8778L134.307 12.506L135.053 12.3118L136.203 13.8778H135.262Z" fill="#262626"/>
</svg>
